<svg xmlns="http://www.w3.org/2000/svg" xmlns:xlink="http://www.w3.org/1999/xlink" width="500" zoomAndPan="magnify" viewBox="0 0 375 374.999991" height="500" preserveAspectRatio="xMidYMid meet" version="1.0"><defs><g/></defs><g fill="#ffffff" fill-opacity="1"><g transform="translate(121.804933, 223.874985)"><g><path d="M 114.390625 36.375 C 113.054688 36.488281 111.78125 36.578125 110.5625 36.640625 C 109.351562 36.703125 108.082031 36.734375 106.75 36.734375 C 97.539062 36.734375 89.539062 34.550781 82.75 30.1875 C 75.957031 25.820312 69.921875 20.15625 64.640625 13.1875 C 59.367188 6.21875 54.671875 -1.660156 50.546875 -10.453125 C 46.429688 -19.242188 42.492188 -28.09375 38.734375 -37 C 34.972656 -45.914062 31.179688 -54.4375 27.359375 -62.5625 C 23.546875 -70.6875 19.335938 -77.597656 14.734375 -83.296875 L 14.734375 -13.453125 C 14.734375 -9.941406 15.703125 -7.0625 17.640625 -4.8125 C 19.578125 -2.570312 22.125 -0.96875 25.28125 0 L 3.28125 0 C 9.945312 -2.0625 13.28125 -6.546875 13.28125 -13.453125 L 13.28125 -84.921875 C 9.03125 -90.015625 3.9375 -94.347656 -2 -97.921875 C -7.9375 -101.503906 -14.300781 -103.296875 -21.09375 -103.296875 C -23.757812 -103.296875 -26.363281 -103.082031 -28.90625 -102.65625 C -31.457031 -102.226562 -33.945312 -101.710938 -36.375 -101.109375 L -36.921875 -102.390625 C -31.097656 -104.085938 -25.21875 -104.9375 -19.28125 -104.9375 C -11.632812 -104.9375 -4.722656 -103.601562 1.453125 -100.9375 C 7.640625 -98.269531 13.25 -94.691406 18.28125 -90.203125 C 23.3125 -85.710938 27.796875 -80.523438 31.734375 -74.640625 C 35.671875 -68.765625 39.242188 -62.613281 42.453125 -56.1875 C 45.671875 -49.769531 48.644531 -43.285156 51.375 -36.734375 C 54.101562 -30.191406 56.679688 -24.007812 59.109375 -18.1875 L 91.296875 -89.109375 L 107.65625 -89.109375 C 105.113281 -88.378906 103.382812 -86.953125 102.46875 -84.828125 C 101.5625 -82.710938 101.109375 -80.441406 101.109375 -78.015625 L 101.109375 -11.640625 C 101.109375 -9.210938 101.53125 -6.875 102.375 -4.625 C 103.226562 -2.382812 104.988281 -0.84375 107.65625 0 L 83.46875 0 C 86.132812 -0.726562 87.890625 -2.242188 88.734375 -4.546875 C 89.585938 -6.847656 90.015625 -9.210938 90.015625 -11.640625 L 90.015625 -83.296875 L 59.828125 -16.546875 C 61.765625 -11.578125 64.066406 -6.09375 66.734375 -0.09375 C 69.410156 5.90625 72.566406 11.507812 76.203125 16.71875 C 79.835938 21.9375 84.109375 26.300781 89.015625 29.8125 C 93.929688 33.332031 99.539062 35.09375 105.84375 35.09375 C 107.300781 35.09375 108.722656 35.0625 110.109375 35 C 111.503906 34.945312 112.867188 34.796875 114.203125 34.546875 Z M 114.390625 36.375 "/></g></g></g><g fill="#ffffff" fill-opacity="1"><g transform="translate(190.26172, 229.914405)"><g><path d="M 60.453125 -76.59375 C 60.304688 -76.59375 60.082031 -76.476562 59.78125 -76.25 C 59.488281 -76.03125 59.195312 -75.625 58.90625 -75.03125 C 58.613281 -74.445312 58.375 -73.601562 58.1875 -72.5 C 58 -71.394531 57.90625 -69.921875 57.90625 -68.078125 L 57.90625 -9.5 C 57.90625 -7.738281 58 -6.285156 58.1875 -5.140625 C 58.375 -3.992188 58.613281 -3.125 58.90625 -2.53125 C 59.195312 -1.945312 59.488281 -1.546875 59.78125 -1.328125 C 60.082031 -1.109375 60.304688 -1 60.453125 -1 L 60.453125 0 L 47.40625 0 L 47.40625 -1 C 47.550781 -1 47.769531 -1.109375 48.0625 -1.328125 C 48.363281 -1.546875 48.644531 -1.945312 48.90625 -2.53125 C 49.164062 -3.125 49.40625 -3.992188 49.625 -5.140625 C 49.84375 -6.285156 49.953125 -7.738281 49.953125 -9.5 L 49.953125 -45.53125 L 13.703125 -45.53125 L 13.703125 -9.5 C 13.703125 -7.738281 13.789062 -6.285156 13.96875 -5.140625 C 14.15625 -3.992188 14.394531 -3.125 14.6875 -2.53125 C 14.988281 -1.945312 15.285156 -1.546875 15.578125 -1.328125 C 15.878906 -1.109375 16.101562 -1 16.25 -1 L 16.25 0 L 3.3125 0 L 3.3125 -1 C 3.457031 -1 3.675781 -1.109375 3.96875 -1.328125 C 4.269531 -1.546875 4.546875 -1.945312 4.796875 -2.53125 C 5.054688 -3.125 5.296875 -3.992188 5.515625 -5.140625 C 5.742188 -6.285156 5.859375 -7.738281 5.859375 -9.5 L 5.859375 -68.078125 C 5.859375 -69.921875 5.742188 -71.394531 5.515625 -72.5 C 5.296875 -73.601562 5.054688 -74.445312 4.796875 -75.03125 C 4.546875 -75.625 4.269531 -76.03125 3.96875 -76.25 C 3.675781 -76.476562 3.457031 -76.59375 3.3125 -76.59375 L 3.3125 -77.578125 L 16.25 -77.578125 L 16.25 -76.59375 C 16.101562 -76.59375 15.878906 -76.476562 15.578125 -76.25 C 15.285156 -76.03125 14.988281 -75.625 14.6875 -75.03125 C 14.394531 -74.445312 14.15625 -73.601562 13.96875 -72.5 C 13.789062 -71.394531 13.703125 -69.921875 13.703125 -68.078125 L 13.703125 -46.53125 L 49.953125 -46.53125 L 49.953125 -68.078125 C 49.953125 -69.921875 49.84375 -71.394531 49.625 -72.5 C 49.40625 -73.601562 49.164062 -74.445312 48.90625 -75.03125 C 48.644531 -75.625 48.363281 -76.03125 48.0625 -76.25 C 47.769531 -76.476562 47.550781 -76.59375 47.40625 -76.59375 L 47.40625 -77.578125 L 60.453125 -77.578125 Z M 60.453125 -76.59375 "/></g></g></g><g fill="#ffffff" fill-opacity="1"><g transform="translate(229.165317, 244.342762)"><g><path d="M 2.453125 0 L 0.15625 0 L 0.15625 -0.4375 L 0.21875 -0.4375 C 0.46875 -0.4375 0.65625 -0.476562 0.78125 -0.5625 C 0.90625 -0.644531 0.96875 -0.8125 0.96875 -1.0625 L 0.96875 -5.71875 C 0.96875 -5.851562 0.894531 -5.953125 0.75 -6.015625 C 0.601562 -6.078125 0.46875 -6.109375 0.34375 -6.109375 L 0.265625 -6.109375 L 0.265625 -6.546875 L 2.15625 -6.546875 L 4.46875 -1.78125 L 6.34375 -6.484375 L 6.34375 -6.546875 L 8.203125 -6.546875 L 8.203125 -6.109375 L 8.125 -6.109375 C 7.976562 -6.109375 7.859375 -6.078125 7.765625 -6.015625 C 7.679688 -5.960938 7.640625 -5.863281 7.640625 -5.71875 L 7.640625 -0.828125 C 7.640625 -0.679688 7.679688 -0.578125 7.765625 -0.515625 C 7.859375 -0.460938 7.976562 -0.4375 8.125 -0.4375 L 8.203125 -0.4375 L 8.203125 0 L 5.78125 0 L 5.78125 -0.4375 L 5.84375 -0.4375 C 6 -0.4375 6.117188 -0.460938 6.203125 -0.515625 C 6.296875 -0.578125 6.34375 -0.679688 6.34375 -0.828125 L 6.34375 -5.3125 L 4.265625 -0.09375 L 3.875 -0.09375 L 1.421875 -5.109375 L 1.421875 -1.0625 C 1.421875 -0.769531 1.507812 -0.59375 1.6875 -0.53125 C 1.875 -0.46875 2.109375 -0.4375 2.390625 -0.4375 L 2.453125 -0.4375 Z M 2.453125 0 "/></g></g></g><g fill="#ffffff" fill-opacity="1"><g transform="translate(238.588258, 244.342762)"><g><path d="M 0.234375 -6.546875 L 2.671875 -6.546875 L 2.671875 -6.109375 L 2.59375 -6.109375 C 2.4375 -6.109375 2.3125 -6.078125 2.21875 -6.015625 C 2.132812 -5.960938 2.09375 -5.863281 2.09375 -5.71875 L 2.09375 -0.828125 C 2.09375 -0.679688 2.132812 -0.578125 2.21875 -0.515625 C 2.3125 -0.460938 2.4375 -0.4375 2.59375 -0.4375 L 2.671875 -0.4375 L 2.671875 0 L 0.234375 0 L 0.234375 -0.4375 L 0.296875 -0.4375 C 0.453125 -0.4375 0.578125 -0.460938 0.671875 -0.515625 C 0.765625 -0.578125 0.8125 -0.679688 0.8125 -0.828125 L 0.8125 -5.71875 C 0.8125 -5.863281 0.765625 -5.960938 0.671875 -6.015625 C 0.578125 -6.078125 0.453125 -6.109375 0.296875 -6.109375 L 0.234375 -6.109375 Z M 0.234375 -6.546875 "/></g></g></g><g fill="#ffffff" fill-opacity="1"><g transform="translate(242.491165, 244.342762)"><g><path d="M 0.09375 0 L 0.09375 -0.4375 L 0.15625 -0.4375 C 0.40625 -0.4375 0.585938 -0.476562 0.703125 -0.5625 C 0.828125 -0.644531 0.890625 -0.8125 0.890625 -1.0625 L 0.890625 -5.703125 C 0.890625 -5.804688 0.851562 -5.882812 0.78125 -5.9375 C 0.707031 -6 0.617188 -6.039062 0.515625 -6.0625 C 0.410156 -6.09375 0.316406 -6.109375 0.234375 -6.109375 L 0.171875 -6.109375 L 0.171875 -6.546875 L 2 -6.546875 L 5.125 -2.234375 L 5.125 -5.484375 C 5.125 -5.734375 5.03125 -5.898438 4.84375 -5.984375 C 4.664062 -6.066406 4.453125 -6.109375 4.203125 -6.109375 L 4.140625 -6.109375 L 4.140625 -6.546875 L 6.40625 -6.546875 L 6.40625 -6.109375 L 6.34375 -6.109375 C 6.101562 -6.109375 5.914062 -6.066406 5.78125 -5.984375 C 5.644531 -5.898438 5.578125 -5.734375 5.578125 -5.484375 L 5.578125 0 L 5.171875 0 L 1.34375 -5.25 L 1.34375 -1.0625 C 1.34375 -0.8125 1.429688 -0.644531 1.609375 -0.5625 C 1.796875 -0.476562 2.015625 -0.4375 2.265625 -0.4375 L 2.328125 -0.4375 L 2.328125 0 Z M 0.09375 0 "/></g></g></g><g fill="#ffffff" fill-opacity="1"><g transform="translate(250.033877, 244.342762)"><g><path d="M 0.140625 -6.109375 L 0.078125 -6.109375 L 0.078125 -6.546875 L 2.5 -6.546875 L 2.5 -6.109375 L 2.4375 -6.109375 C 2.28125 -6.109375 2.15625 -6.078125 2.0625 -6.015625 C 1.976562 -5.960938 1.9375 -5.863281 1.9375 -5.71875 L 1.9375 -3.375 L 4.546875 -3.375 L 4.546875 -5.71875 C 4.546875 -5.863281 4.5 -5.960938 4.40625 -6.015625 C 4.320312 -6.078125 4.203125 -6.109375 4.046875 -6.109375 L 3.96875 -6.109375 L 3.96875 -6.546875 L 6.40625 -6.546875 L 6.40625 -6.109375 L 6.34375 -6.109375 C 6.1875 -6.109375 6.0625 -6.078125 5.96875 -6.015625 C 5.882812 -5.960938 5.84375 -5.863281 5.84375 -5.71875 L 5.84375 -0.828125 C 5.84375 -0.679688 5.882812 -0.578125 5.96875 -0.515625 C 6.0625 -0.460938 6.1875 -0.4375 6.34375 -0.4375 L 6.40625 -0.4375 L 6.40625 0 L 3.96875 0 L 3.96875 -0.4375 L 4.046875 -0.4375 C 4.203125 -0.4375 4.320312 -0.460938 4.40625 -0.515625 C 4.5 -0.578125 4.546875 -0.679688 4.546875 -0.828125 L 4.546875 -2.953125 L 1.9375 -2.953125 L 1.9375 -0.828125 C 1.9375 -0.679688 1.976562 -0.578125 2.0625 -0.515625 C 2.15625 -0.460938 2.28125 -0.4375 2.4375 -0.4375 L 2.5 -0.4375 L 2.5 0 L 0.078125 0 L 0.078125 -0.4375 L 0.140625 -0.4375 C 0.296875 -0.4375 0.414062 -0.460938 0.5 -0.515625 C 0.59375 -0.578125 0.640625 -0.679688 0.640625 -0.828125 L 0.640625 -5.71875 C 0.640625 -5.863281 0.59375 -5.960938 0.5 -6.015625 C 0.414062 -6.078125 0.296875 -6.109375 0.140625 -6.109375 Z M 0.140625 -6.109375 "/></g></g></g><g fill="#ffffff" fill-opacity="1"><g transform="translate(229.165317, 254.092762)"><g><path d="M 0.140625 -6.109375 L 0.078125 -6.109375 L 0.078125 -6.546875 L 2.5 -6.546875 L 2.5 -6.109375 L 2.4375 -6.109375 C 2.28125 -6.109375 2.15625 -6.078125 2.0625 -6.015625 C 1.976562 -5.960938 1.9375 -5.863281 1.9375 -5.71875 L 1.9375 -3.375 L 4.546875 -3.375 L 4.546875 -5.71875 C 4.546875 -5.863281 4.5 -5.960938 4.40625 -6.015625 C 4.320312 -6.078125 4.203125 -6.109375 4.046875 -6.109375 L 3.96875 -6.109375 L 3.96875 -6.546875 L 6.40625 -6.546875 L 6.40625 -6.109375 L 6.34375 -6.109375 C 6.1875 -6.109375 6.0625 -6.078125 5.96875 -6.015625 C 5.882812 -5.960938 5.84375 -5.863281 5.84375 -5.71875 L 5.84375 -0.828125 C 5.84375 -0.679688 5.882812 -0.578125 5.96875 -0.515625 C 6.0625 -0.460938 6.1875 -0.4375 6.34375 -0.4375 L 6.40625 -0.4375 L 6.40625 0 L 3.96875 0 L 3.96875 -0.4375 L 4.046875 -0.4375 C 4.203125 -0.4375 4.320312 -0.460938 4.40625 -0.515625 C 4.5 -0.578125 4.546875 -0.679688 4.546875 -0.828125 L 4.546875 -2.953125 L 1.9375 -2.953125 L 1.9375 -0.828125 C 1.9375 -0.679688 1.976562 -0.578125 2.0625 -0.515625 C 2.15625 -0.460938 2.28125 -0.4375 2.4375 -0.4375 L 2.5 -0.4375 L 2.5 0 L 0.078125 0 L 0.078125 -0.4375 L 0.140625 -0.4375 C 0.296875 -0.4375 0.414062 -0.460938 0.5 -0.515625 C 0.59375 -0.578125 0.640625 -0.679688 0.640625 -0.828125 L 0.640625 -5.71875 C 0.640625 -5.863281 0.59375 -5.960938 0.5 -6.015625 C 0.414062 -6.078125 0.296875 -6.109375 0.140625 -6.109375 Z M 0.140625 -6.109375 "/></g></g></g><g fill="#ffffff" fill-opacity="1"><g transform="translate(236.798517, 254.092762)"><g><path d="M 0.234375 -6.546875 L 2.671875 -6.546875 L 2.671875 -6.109375 L 2.59375 -6.109375 C 2.4375 -6.109375 2.3125 -6.078125 2.21875 -6.015625 C 2.132812 -5.960938 2.09375 -5.863281 2.09375 -5.71875 L 2.09375 -0.828125 C 2.09375 -0.679688 2.132812 -0.578125 2.21875 -0.515625 C 2.3125 -0.460938 2.4375 -0.4375 2.59375 -0.4375 L 2.671875 -0.4375 L 2.671875 0 L 0.234375 0 L 0.234375 -0.4375 L 0.296875 -0.4375 C 0.453125 -0.4375 0.578125 -0.460938 0.671875 -0.515625 C 0.765625 -0.578125 0.8125 -0.679688 0.8125 -0.828125 L 0.8125 -5.71875 C 0.8125 -5.863281 0.765625 -5.960938 0.671875 -6.015625 C 0.578125 -6.078125 0.453125 -6.109375 0.296875 -6.109375 L 0.234375 -6.109375 Z M 0.234375 -6.546875 "/></g></g></g><g fill="#ffffff" fill-opacity="1"><g transform="translate(240.701424, 254.092762)"><g><path d="M 0.0625 -0.4375 L 0.125 -0.4375 C 0.28125 -0.425781 0.40625 -0.453125 0.5 -0.515625 C 0.59375 -0.578125 0.640625 -0.679688 0.640625 -0.828125 L 0.640625 -5.71875 C 0.640625 -5.863281 0.59375 -5.96875 0.5 -6.03125 C 0.40625 -6.09375 0.28125 -6.117188 0.125 -6.109375 L 0.0625 -6.109375 L 0.0625 -6.546875 L 4.921875 -6.546875 L 5.375 -4.453125 L 4.953125 -4.421875 L 4.9375 -4.484375 C 4.882812 -4.578125 4.835938 -4.675781 4.796875 -4.78125 C 4.765625 -4.894531 4.722656 -5.003906 4.671875 -5.109375 C 4.515625 -5.441406 4.3125 -5.691406 4.0625 -5.859375 C 3.820312 -6.023438 3.507812 -6.109375 3.125 -6.109375 L 1.921875 -6.109375 L 1.921875 -3.40625 C 2.097656 -3.40625 2.269531 -3.40625 2.4375 -3.40625 C 2.601562 -3.40625 2.769531 -3.40625 2.9375 -3.40625 C 3.289062 -3.414062 3.566406 -3.472656 3.765625 -3.578125 C 3.972656 -3.691406 4.078125 -3.921875 4.078125 -4.265625 L 4.078125 -4.328125 L 4.515625 -4.328125 L 4.515625 -2.203125 L 4.078125 -2.203125 L 4.078125 -2.265625 C 4.078125 -2.484375 4.023438 -2.640625 3.921875 -2.734375 C 3.816406 -2.828125 3.679688 -2.882812 3.515625 -2.90625 C 3.347656 -2.9375 3.15625 -2.953125 2.9375 -2.953125 C 2.769531 -2.953125 2.601562 -2.953125 2.4375 -2.953125 C 2.269531 -2.953125 2.097656 -2.953125 1.921875 -2.953125 L 1.921875 -0.4375 L 3.59375 -0.4375 C 3.9375 -0.4375 4.210938 -0.523438 4.421875 -0.703125 C 4.628906 -0.878906 4.800781 -1.113281 4.9375 -1.40625 C 4.988281 -1.507812 5.03125 -1.617188 5.0625 -1.734375 C 5.101562 -1.847656 5.148438 -1.960938 5.203125 -2.078125 L 5.21875 -2.109375 L 5.640625 -2.09375 L 5.1875 0 L 0.0625 0 Z M 0.0625 -0.4375 "/></g></g></g><g fill="#ffffff" fill-opacity="1"><g transform="translate(247.449813, 254.092762)"><g><path d="M 0.0625 -6.109375 L 0.0625 -6.546875 L 2.5 -6.546875 L 2.5 -6.109375 L 2.421875 -6.109375 C 2.265625 -6.117188 2.140625 -6.09375 2.046875 -6.03125 C 1.960938 -5.96875 1.921875 -5.863281 1.921875 -5.71875 L 1.921875 -2.046875 C 1.921875 -1.921875 1.921875 -1.796875 1.921875 -1.671875 C 1.929688 -1.546875 1.953125 -1.425781 1.984375 -1.3125 C 2.054688 -1.007812 2.203125 -0.773438 2.421875 -0.609375 C 2.640625 -0.453125 2.910156 -0.375 3.234375 -0.375 C 3.535156 -0.375 3.800781 -0.445312 4.03125 -0.59375 C 4.269531 -0.738281 4.457031 -0.929688 4.59375 -1.171875 C 4.726562 -1.421875 4.796875 -1.695312 4.796875 -2 L 4.796875 -5.484375 C 4.796875 -5.734375 4.695312 -5.898438 4.5 -5.984375 C 4.3125 -6.066406 4.097656 -6.109375 3.859375 -6.109375 L 3.796875 -6.109375 L 3.796875 -6.546875 L 5.953125 -6.546875 L 5.953125 -6.109375 L 5.890625 -6.109375 C 5.648438 -6.117188 5.476562 -6.078125 5.375 -5.984375 C 5.269531 -5.890625 5.21875 -5.722656 5.21875 -5.484375 L 5.21875 -2.125 C 5.21875 -1.4375 5.03125 -0.894531 4.65625 -0.5 C 4.289062 -0.101562 3.734375 0.09375 2.984375 0.09375 C 2.554688 0.09375 2.160156 0.0195312 1.796875 -0.125 C 1.441406 -0.269531 1.160156 -0.492188 0.953125 -0.796875 C 0.742188 -1.097656 0.640625 -1.472656 0.640625 -1.921875 L 0.640625 -5.71875 C 0.640625 -5.863281 0.59375 -5.96875 0.5 -6.03125 C 0.40625 -6.09375 0.28125 -6.117188 0.125 -6.109375 Z M 0.0625 -6.109375 "/></g></g></g></svg>